<svg xmlns="http://www.w3.org/2000/svg" viewBox="0 0 512 512"><rect width="512" height="512" rx="50" ry="50" fill="#1c1c1c"/><path d="M61.560 2.268L61.560 2.268Q45.198 2.268 34.830-3.240Q24.462-8.748 19.683-20.736Q14.904-32.724 14.904-52.164L14.904-52.164L14.904-116.964L31.266-116.964L31.266-52.164Q31.266-28.350 40.338-18.954L40.338-18.954Q47.142-11.988 61.560-11.988L61.560-11.988Q75.978-11.988 82.782-18.792L82.782-18.792Q92.016-28.026 92.016-52.164L92.016-52.164L92.016-116.964L108.378-116.964L108.378-52.164Q108.378-32.724 103.518-20.736Q98.658-8.748 88.371-3.240Q78.084 2.268 61.560 2.268ZM154.548 0L138.186 0L138.186-116.964L154.548-116.964L154.548-67.230L202.824-116.964L222.912-116.964L173.178-66.582L228.906 0L207.036 0L154.548-61.722L154.548 0ZM252.882 0L236.196 0L285.282-116.964L303.102-116.964L352.836 0L335.664 0L323.028-31.266L265.680-31.266L252.882 0ZM293.868-98.982L271.998-45.036L316.224-45.036L293.868-98.982ZM386.856 0L370.494 0L370.494-116.964L403.542-116.964Q424.278-116.964 434.646-111.132L434.646-111.132Q448.740-103.194 448.740-83.268L448.740-83.268Q448.740-63.504 434.646-55.404L434.646-55.404Q424.278-49.572 403.542-49.572L403.542-49.572L386.856-49.572L386.856 0ZM386.856-102.870L386.856-63.828L404.028-63.828Q419.094-63.828 426.060-68.202Q433.026-72.576 433.026-83.268L433.026-83.268Q433.026-93.960 426.060-98.415Q419.094-102.870 404.028-102.870L404.028-102.870L386.856-102.870Z" fill="#ff5454" transform="translate(24.178000450134277, 313.34799575805664)"/></svg>